<svg width="171" height="44" viewBox="0 0 171 44" fill="none" xmlns="http://www.w3.org/2000/svg">
<path d="M57.0571 19.5811L56.8846 19.5022C51.2452 16.9453 45.9174 14.5258 45.9174 9.00174C45.9174 4.02636 49.1693 1.28618 55.0734 1.28618C59.7092 1.28618 62.8058 2.75216 64.5378 5.76615C66.2848 8.80464 66.5161 13.1568 66.5161 17.0124V17.1903C66.5161 17.7124 66.7432 17.9468 66.9682 17.9468C67.1931 17.9468 67.4191 17.7124 67.4191 17.1903V17.0124C67.4191 11.3126 67.5862 7.62419 67.6858 5.42096C67.7501 4.01251 67.7929 3.1634 67.7458 2.69143C67.6794 2.12038 67.4395 2.01917 67.011 1.88706C63.5995 1.04007 60.3433 0.336914 55.0734 0.336914C51.5537 0.336914 48.3253 1.41296 45.9688 3.36689C43.4496 5.46358 42.1182 8.37423 42.1182 11.7888C42.1182 18.3228 48.4378 21.1483 54.0076 23.6402L54.36 23.8011C59.7949 26.2898 64.9298 28.6401 64.9298 34.2196C64.9298 39.2706 61.9307 42.0534 56.484 42.0534C47.929 42.0534 43.9444 36.7168 43.9444 25.2585C43.9444 24.7056 43.7034 24.4584 43.4656 24.4584C43.2278 24.4584 42.9868 24.7056 42.9868 25.2585C42.9868 26.7362 43.0008 29.9548 43.0147 33.0689C43.0286 36.1831 43.0415 39.1076 43.0415 40.45C43.0415 40.9219 43.1882 41.0892 43.7152 41.2138C47.3131 42.2601 50.3347 43.0016 56.484 43.0016C59.7627 43.0016 62.7919 41.8701 65.0112 39.8161C67.3002 37.697 68.5609 34.7192 68.5609 31.4304C68.5695 24.8761 62.7169 22.1838 57.0571 19.5811Z" fill="white"></path>
<path d="M88.2602 35.379C88.1916 35.2874 88.1002 35.2152 87.9951 35.1694C87.8899 35.1236 87.7745 35.1059 87.6604 35.118C87.5702 35.1285 87.4848 35.1641 87.4139 35.2206C87.3431 35.2771 87.2897 35.3523 87.2598 35.4376C86.0655 38.898 84.0464 40.9638 81.8613 40.9638C80.3243 40.9638 78.4916 39.958 78.4916 35.1691V18.3008C79.7769 18.3008 82.0348 18.3253 83.5505 18.3412C84.3163 18.3487 84.884 18.354 85.0276 18.354H85.0961L85.1464 18.3082C86.3932 17.1885 87.88 15.7513 87.88 15.2452C87.881 15.2117 87.8749 15.1784 87.8622 15.1474C87.8494 15.1164 87.8303 15.0884 87.806 15.0652C87.6989 14.9586 87.5597 14.9054 85.7859 14.9586C84.0486 15.0108 80.3521 15.013 78.6008 15.013V9.92465C78.6008 9.76271 78.5473 9.6583 78.4423 9.61568C78.2774 9.54643 78.1274 9.69559 78.0781 9.7446L71.0869 17.735C71.0347 17.7886 70.9991 17.8559 70.9843 17.929C70.9695 18.0021 70.9761 18.0779 71.0034 18.1473C71.0193 18.1918 71.0482 18.2306 71.0863 18.2587C71.1245 18.2867 71.1702 18.3029 71.2176 18.305H74.0411V35.3332C74.0411 40.6367 75.7131 43.004 79.4599 43.004C83.3845 43.004 86.5989 39.3348 88.2977 35.9021C88.3414 35.8202 88.3611 35.7277 88.3544 35.6352C88.3478 35.5427 88.3151 35.4539 88.2602 35.379Z" fill="white"></path>
<path d="M127.12 41.642C124.292 41.642 124.078 41.5152 124.078 36.1722V0.901396C124.078 0.758633 123.983 0.632917 123.794 0.53064C123.538 0.388943 123.045 0.266423 122.83 0.386812C121.188 1.24978 119.127 2.19798 116.296 2.67634C115.951 2.71682 115.79 2.9576 115.814 3.16322C115.821 3.21817 115.841 3.2708 115.871 3.317C115.902 3.3632 115.943 3.40173 115.991 3.42957C116.1 3.48845 116.226 3.50945 116.348 3.48923C117.589 3.27615 118.439 3.16961 118.919 3.5734C119.434 4.00595 119.634 5.05536 119.634 7.31825V36.1722C119.634 41.2861 119.485 41.642 117.356 41.642C117.024 41.642 116.85 41.8476 116.85 42.0511C116.85 42.2546 117.024 42.4591 117.356 42.4591C118.279 42.4591 119.651 42.424 120.752 42.3952C121.559 42.375 122.252 42.3568 122.596 42.3568C122.94 42.3568 123.507 42.375 124.17 42.3952C125.075 42.424 126.205 42.4591 127.127 42.4591C127.459 42.4591 127.632 42.2535 127.632 42.0511C127.632 41.8486 127.452 41.642 127.12 41.642Z" fill="white"></path>
<path d="M141.625 41.642C138.797 41.642 138.583 41.5152 138.583 36.1722V0.901396C138.583 0.758633 138.488 0.632917 138.3 0.53064C138.043 0.388943 137.55 0.266423 137.336 0.386812C135.694 1.24978 133.633 2.19798 130.797 2.67634C130.451 2.71682 130.29 2.9576 130.315 3.16322C130.322 3.21817 130.341 3.2708 130.372 3.317C130.403 3.3632 130.444 3.40173 130.492 3.42957C130.601 3.48845 130.726 3.50945 130.848 3.48923C132.09 3.27615 132.939 3.16961 133.419 3.5734C133.934 4.00595 134.135 5.05536 134.135 7.31825V36.1722C134.135 41.2861 133.986 41.642 131.856 41.642C131.524 41.642 131.351 41.8476 131.351 42.0511C131.351 42.2546 131.524 42.4591 131.856 42.4591C132.78 42.4591 134.151 42.424 135.253 42.3952C136.059 42.375 136.752 42.3568 137.096 42.3568C137.44 42.3568 138.008 42.375 138.671 42.3952C139.576 42.424 140.706 42.4591 141.627 42.4591C141.959 42.4591 142.133 42.2535 142.133 42.0511C142.133 41.8486 141.957 41.642 141.625 41.642Z" fill="white"></path>
<path d="M170.722 37.7317C170.66 37.6904 170.591 37.6623 170.517 37.6491C170.444 37.6358 170.369 37.6377 170.297 37.6546C170.224 37.6714 170.156 37.703 170.096 37.7472C170.037 37.7915 169.987 37.8475 169.95 37.9117C169.286 39.1135 167.981 40.8064 167.16 40.8064C166.492 40.8064 165.809 40.279 165.809 36.369C165.809 35.4571 165.89 33.8121 165.984 31.8997C166.107 29.3907 166.246 26.5472 166.246 24.4793C166.246 21.0487 165.36 18.4459 163.613 16.7445C162.03 15.2029 159.77 14.4209 156.897 14.4209C152.961 14.4209 148.294 16.7648 146.158 18.1402C144.688 19.0767 144.165 20.1815 144.165 20.842C144.165 21.7082 145.092 22.2675 146.521 22.2675C147.95 22.2675 148.563 22.0214 149.125 21.2138C149.398 20.7895 149.646 20.3502 149.869 19.8981C150.46 18.757 151.196 17.3411 152.47 16.3684C153.46 15.6152 154.588 15.2647 156.019 15.2647C159.4 15.2647 161.422 16.6593 161.73 23.7633L157.265 25.5084C147.877 29.1425 143.505 32.7318 143.505 36.8016C143.5 37.6321 143.671 38.4544 144.007 39.2145C144.344 39.9746 144.838 40.6554 145.458 41.2123C146.791 42.4194 148.632 43.0586 150.784 43.0586C154.962 43.0586 159.558 38.3411 161.234 35.6563C161.156 36.662 161.086 37.9213 161.086 38.9728C161.086 41.5735 162.254 43.0054 164.376 43.0054C166.587 43.0054 170 39.8294 170.91 38.5243C170.951 38.4604 170.979 38.3889 170.992 38.314C171.005 38.2391 171.003 38.1624 170.985 38.0884C170.968 38.0144 170.935 37.9447 170.89 37.8834C170.845 37.8221 170.788 37.7705 170.722 37.7317V37.7317ZM161.739 24.5805V25.452C161.739 29.3513 161.485 32.2374 161.388 33.3241C161.376 33.4712 161.366 33.5884 161.358 33.6736C160.871 35.3995 157.138 40.3131 153.457 40.3131C150.221 40.3131 147.686 38.0758 147.686 35.2248C147.686 31.3372 149.43 29.7657 157.511 26.3757L161.739 24.5805Z" fill="white"></path>
<path d="M115.747 32.8199C115.685 32.7411 115.602 32.6799 115.508 32.6426C115.414 32.6052 115.312 32.5929 115.212 32.6069C115.129 32.6232 115.052 32.6622 114.989 32.7196C114.927 32.777 114.882 32.8505 114.859 32.9318V32.9318C114.003 35.8755 112.387 37.448 111.503 38.1235L111.452 38.1618C110.004 39.1452 108.186 39.5649 105.374 39.5649C98.9373 39.5649 93.8955 34.4202 93.8955 27.8531C93.8837 26.5082 94.0169 25.166 94.2929 23.8493H110.574C111.926 23.8493 112.645 23.2474 112.774 22.0094C112.925 20.7054 112.56 18.728 111.09 17.0862C109.162 14.9341 106.287 14.4824 104.216 14.4824C100.94 14.4824 97.5437 16.1615 94.897 19.0881C92.1967 22.0712 90.6489 25.9993 90.6489 29.8613C90.6489 33.5806 91.8272 36.9345 93.9758 39.305C96.2048 41.7671 99.2972 43.069 102.916 43.069C105.503 43.069 107.986 42.1986 110.298 40.4812C112.035 39.175 112.963 38.1064 113.894 36.8066C114.677 35.7433 115.324 34.5883 115.822 33.3676C115.862 33.2783 115.876 33.1799 115.863 33.0832C115.85 32.9865 115.81 32.8953 115.747 32.8199V32.8199ZM94.4696 23.0642C95.0577 20.8045 96.0988 19.0455 97.5641 17.8341C99.009 16.6409 100.791 16.0358 102.863 16.0358C106.521 16.0358 108.219 18.8782 108.219 20.7991C108.219 21.4959 108.077 22.0861 107.829 22.4196C107.69 22.5368 106.7 22.8457 106.037 22.8457C104.684 22.8457 103.328 22.8852 101.752 22.932C99.7385 22.9928 97.4559 23.061 94.4696 23.0642Z" fill="white"></path>
<path d="M31.7277 14.3892C31.7277 6.45521 24.6122 0 15.8654 0C7.11867 0 0 6.45521 0 14.3892C0.00454066 16.9868 0.770604 19.5266 2.20437 21.6978C0.770604 23.8689 0.00454066 26.4088 0 29.0063C0 36.9403 7.11546 43.3955 15.8622 43.3955C24.609 43.3955 31.7277 36.9403 31.7277 29.0063C31.7231 26.4088 30.9571 23.8689 29.5233 21.6978C30.9571 19.5266 31.7231 16.9868 31.7277 14.3892V14.3892ZM2.46358 14.3892C2.46358 7.80612 8.47685 2.4504 15.8654 2.4504C23.254 2.4504 29.2641 7.80612 29.2641 14.3892C29.2616 16.2261 28.791 18.0325 27.8963 19.6394C24.985 16.5679 20.6716 14.6182 15.8654 14.6182C11.0593 14.6182 6.74806 16.5679 3.83461 19.6394C2.93875 18.0328 2.46704 16.2264 2.46358 14.3892V14.3892ZM26.4567 21.6978C23.9985 24.5125 20.1649 26.3322 15.8654 26.3322C11.566 26.3322 7.73242 24.521 5.27849 21.7031C7.73242 18.8883 11.5649 17.074 15.8654 17.074C20.166 17.074 23.9985 18.883 26.4567 21.6978ZM29.2695 29.0063C29.2695 35.5894 23.2583 40.9451 15.8708 40.9451C8.48328 40.9451 2.46358 35.5894 2.46358 29.0063C2.46704 27.1691 2.93875 25.3628 3.83461 23.7561C6.74806 26.8276 11.0593 28.7826 15.8654 28.7826C20.6716 28.7826 24.985 26.8329 27.8963 23.7614C28.7902 25.3668 29.2607 27.1712 29.2641 29.0063H29.2695Z" fill="white"></path>
</svg>